<svg width="36" height="34" viewBox="0 0 36 34" fill="none" xmlns="http://www.w3.org/2000/svg">
<g filter="url(#filter0_d_143_307)">
<path d="M18 0C18 0 9.3396 7.476 4.4998 11.5248C4.3458 11.659 4.22172 11.824 4.13562 12.0093C4.04951 12.1945 4.00331 12.3958 4 12.6C4 12.9713 4.1475 13.3274 4.41005 13.5899C4.6726 13.8525 5.0287 14 5.4 14H8.2V23.8C8.2 24.1713 8.3475 24.5274 8.61005 24.7899C8.8726 25.0525 9.2287 25.2 9.6 25.2H13.8C14.1713 25.2 14.5274 25.0525 14.7899 24.7899C15.0525 24.5274 15.2 24.1713 15.2 23.8V18.2H20.8V23.8C20.8 24.1713 20.9475 24.5274 21.21 24.7899C21.4726 25.0525 21.8287 25.2 22.2 25.2H26.4C26.7713 25.2 27.1274 25.0525 27.39 24.7899C27.6525 24.5274 27.8 24.1713 27.8 23.8V14H30.6C30.9713 14 31.3274 13.8525 31.5899 13.5899C31.8525 13.3274 32 12.9713 32 12.6C31.998 12.3918 31.9488 12.1869 31.8559 12.0006C31.763 11.8143 31.6289 11.6516 31.4638 11.5248C26.6576 7.476 18 0 18 0Z" fill="black"/>
</g>
<defs>
<filter id="filter0_d_143_307" x="0" y="0" width="36" height="33.2" filterUnits="userSpaceOnUse" color-interpolation-filters="sRGB">
<feFlood flood-opacity="0" result="BackgroundImageFix"/>
<feColorMatrix in="SourceAlpha" type="matrix" values="0 0 0 0 0 0 0 0 0 0 0 0 0 0 0 0 0 0 127 0" result="hardAlpha"/>
<feOffset dy="4"/>
<feGaussianBlur stdDeviation="2"/>
<feComposite in2="hardAlpha" operator="out"/>
<feColorMatrix type="matrix" values="0 0 0 0 0 0 0 0 0 0 0 0 0 0 0 0 0 0 0.25 0"/>
<feBlend mode="normal" in2="BackgroundImageFix" result="effect1_dropShadow_143_307"/>
<feBlend mode="normal" in="SourceGraphic" in2="effect1_dropShadow_143_307" result="shape"/>
</filter>
</defs>
</svg>
