<svg width="32" height="38" viewBox="0 0 32 38" fill="none" xmlns="http://www.w3.org/2000/svg">
<g filter="url(#filter0_d_145_333)">
<path d="M4 15C4 15.3978 4.15804 15.7794 4.43934 16.0607C4.72064 16.342 5.10218 16.5 5.5 16.5H16.885L13.435 19.935C13.2944 20.0744 13.1828 20.2403 13.1067 20.4231C13.0305 20.6059 12.9913 20.802 12.9913 21C12.9913 21.198 13.0305 21.3941 13.1067 21.5769C13.1828 21.7597 13.2944 21.9256 13.435 22.065C13.5744 22.2056 13.7403 22.3172 13.9231 22.3933C14.1059 22.4695 14.302 22.5087 14.5 22.5087C14.698 22.5087 14.8941 22.4695 15.0769 22.3933C15.2597 22.3172 15.4256 22.2056 15.565 22.065L21.565 16.065C21.7016 15.9223 21.8086 15.7541 21.88 15.57C22.03 15.2048 22.03 14.7952 21.88 14.43C21.8086 14.2459 21.7016 14.0777 21.565 13.935L15.565 7.935C15.4251 7.79514 15.2591 7.6842 15.0764 7.60851C14.8936 7.53282 14.6978 7.49386 14.5 7.49386C14.3022 7.49386 14.1064 7.53282 13.9236 7.60851C13.7409 7.6842 13.5749 7.79514 13.435 7.935C13.2951 8.07486 13.1842 8.24089 13.1085 8.42363C13.0328 8.60636 12.9939 8.80221 12.9939 9C12.9939 9.19779 13.0328 9.39364 13.1085 9.57637C13.1842 9.75911 13.2951 9.92514 13.435 10.065L16.885 13.5H5.5C5.10218 13.5 4.72064 13.658 4.43934 13.9393C4.15804 14.2206 4 14.6022 4 15ZM23.5 0H8.5C7.30653 0 6.16193 0.474106 5.31802 1.31802C4.47411 2.16193 4 3.30653 4 4.5V9C4 9.39782 4.15804 9.77936 4.43934 10.0607C4.72064 10.342 5.10218 10.5 5.5 10.5C5.89782 10.5 6.27936 10.342 6.56066 10.0607C6.84196 9.77936 7 9.39782 7 9V4.5C7 4.10218 7.15804 3.72064 7.43934 3.43934C7.72064 3.15804 8.10218 3 8.5 3H23.5C23.8978 3 24.2794 3.15804 24.5607 3.43934C24.842 3.72064 25 4.10218 25 4.5V25.5C25 25.8978 24.842 26.2794 24.5607 26.5607C24.2794 26.842 23.8978 27 23.5 27H8.5C8.10218 27 7.72064 26.842 7.43934 26.5607C7.15804 26.2794 7 25.8978 7 25.5V21C7 20.6022 6.84196 20.2206 6.56066 19.9393C6.27936 19.658 5.89782 19.5 5.5 19.5C5.10218 19.5 4.72064 19.658 4.43934 19.9393C4.15804 20.2206 4 20.6022 4 21V25.5C4 26.6935 4.47411 27.8381 5.31802 28.682C6.16193 29.5259 7.30653 30 8.5 30H23.5C24.6935 30 25.8381 29.5259 26.682 28.682C27.5259 27.8381 28 26.6935 28 25.5V4.5C28 3.30653 27.5259 2.16193 26.682 1.31802C25.8381 0.474106 24.6935 0 23.5 0Z" fill="#B9B9B9"/>
</g>
<defs>
<filter id="filter0_d_145_333" x="0" y="0" width="32" height="38" filterUnits="userSpaceOnUse" color-interpolation-filters="sRGB">
<feFlood flood-opacity="0" result="BackgroundImageFix"/>
<feColorMatrix in="SourceAlpha" type="matrix" values="0 0 0 0 0 0 0 0 0 0 0 0 0 0 0 0 0 0 127 0" result="hardAlpha"/>
<feOffset dy="4"/>
<feGaussianBlur stdDeviation="2"/>
<feComposite in2="hardAlpha" operator="out"/>
<feColorMatrix type="matrix" values="0 0 0 0 0 0 0 0 0 0 0 0 0 0 0 0 0 0 0.25 0"/>
<feBlend mode="normal" in2="BackgroundImageFix" result="effect1_dropShadow_145_333"/>
<feBlend mode="normal" in="SourceGraphic" in2="effect1_dropShadow_145_333" result="shape"/>
</filter>
</defs>
</svg>
