<svg width="40" height="46" viewBox="0 0 40 46" fill="none" xmlns="http://www.w3.org/2000/svg">
<path d="M34.174 27.4429L36.3015 21.8704C36.6576 20.9357 35.9721 19.9387 34.9662 19.9387H29.7587C30.7379 18.2563 31.3432 16.3246 31.3432 14.2416V14.2148C34.8327 13.5205 37.0403 12.5146 37.0403 11.393C37.0403 10.209 34.6101 9.15863 30.8002 8.45539C29.9812 5.53561 28.3967 2.59802 27.1861 1.08472C26.3404 0.0254078 24.8805 -0.303958 23.6698 0.301363L21.213 1.52981C20.4118 1.93039 19.4682 1.93039 18.667 1.52981L16.2102 0.301363C14.9995 -0.303958 13.5396 0.0254078 12.6939 1.08472C11.4922 2.59802 9.89879 5.53561 9.07982 8.45539C5.27876 9.15863 2.84857 10.209 2.84857 11.393C2.84857 12.5146 5.05621 13.5205 8.54571 14.2148V14.2416C8.54571 16.3246 9.15104 18.2563 10.1302 19.9387H5.01171C3.988 19.9387 3.30256 20.9802 3.70314 21.9238L5.9998 27.2827C2.43019 29.3568 0 33.1756 0 37.5998V41.5878C0 43.7866 1.78926 45.5758 3.988 45.5758H35.892C38.0907 45.5758 39.88 43.7866 39.88 41.5878V37.5998C39.88 33.2914 37.5833 29.5526 34.174 27.4429ZM15.6671 42.7272L11.964 25.6358L16.3793 28.4844L18.5157 32.0451L15.6671 42.7272ZM24.2129 42.7272L21.3643 32.0451L23.5007 28.4844L27.916 25.6358L24.2129 42.7272ZM27.9249 16.1554C27.5777 17.2147 27.3018 18.3453 26.4561 19.1286C25.557 19.9565 22.1833 21.1226 20.759 16.9032C20.5097 16.1554 19.3881 16.1554 19.1299 16.9032C17.6166 21.3719 14.1449 19.7874 13.4328 19.1286C12.5871 18.3453 12.3023 17.2147 11.964 16.1554C11.8928 15.9329 11.4032 15.648 11.4032 15.6391V14.6777C13.9224 14.9982 16.8333 15.194 19.9489 15.194C23.0645 15.194 25.9754 15.0071 28.4946 14.6777V15.6391C28.4857 15.648 27.9961 15.924 27.9249 16.1554Z" fill="#F5F5F5"/>
</svg>
