<svg width="33" height="29" viewBox="0 0 33 29" fill="none" xmlns="http://www.w3.org/2000/svg">
<g filter="url(#filter0_d_144_324)">
<path d="M7.90625 15.625H4.78125C4.57405 15.625 4.37534 15.7073 4.22882 15.8538C4.08231 16.0003 4 16.199 4 16.4062V19.5312C4 19.7385 4.08231 19.9372 4.22882 20.0837C4.37534 20.2302 4.57405 20.3125 4.78125 20.3125H7.90625C8.11345 20.3125 8.31216 20.2302 8.45868 20.0837C8.60519 19.9372 8.6875 19.7385 8.6875 19.5312V16.4062C8.6875 16.199 8.60519 16.0003 8.45868 15.8538C8.31216 15.7073 8.11345 15.625 7.90625 15.625ZM7.90625 0H4.78125C4.57405 0 4.37534 0.08231 4.22882 0.228823C4.08231 0.375336 4 0.57405 4 0.78125V3.90625C4 4.11345 4.08231 4.31216 4.22882 4.45868C4.37534 4.60519 4.57405 4.6875 4.78125 4.6875H7.90625C8.11345 4.6875 8.31216 4.60519 8.45868 4.45868C8.60519 4.31216 8.6875 4.11345 8.6875 3.90625V0.78125C8.6875 0.57405 8.60519 0.375336 8.45868 0.228823C8.31216 0.08231 8.11345 0 7.90625 0ZM7.90625 7.8125H4.78125C4.57405 7.8125 4.37534 7.89481 4.22882 8.04132C4.08231 8.18784 4 8.38655 4 8.59375V11.7188C4 11.926 4.08231 12.1247 4.22882 12.2712C4.37534 12.4177 4.57405 12.5 4.78125 12.5H7.90625C8.11345 12.5 8.31216 12.4177 8.45868 12.2712C8.60519 12.1247 8.6875 11.926 8.6875 11.7188V8.59375C8.6875 8.38655 8.60519 8.18784 8.45868 8.04132C8.31216 7.89481 8.11345 7.8125 7.90625 7.8125ZM28.2188 16.4062H12.5938C12.3865 16.4062 12.1878 16.4886 12.0413 16.6351C11.8948 16.7816 11.8125 16.9803 11.8125 17.1875V18.75C11.8125 18.9572 11.8948 19.1559 12.0413 19.3024C12.1878 19.4489 12.3865 19.5312 12.5938 19.5312H28.2188C28.426 19.5312 28.6247 19.4489 28.7712 19.3024C28.9177 19.1559 29 18.9572 29 18.75V17.1875C29 16.9803 28.9177 16.7816 28.7712 16.6351C28.6247 16.4886 28.426 16.4062 28.2188 16.4062ZM28.2188 0.78125H12.5938C12.3865 0.78125 12.1878 0.86356 12.0413 1.01007C11.8948 1.15659 11.8125 1.3553 11.8125 1.5625V3.125C11.8125 3.3322 11.8948 3.53091 12.0413 3.67743C12.1878 3.82394 12.3865 3.90625 12.5938 3.90625H28.2188C28.426 3.90625 28.6247 3.82394 28.7712 3.67743C28.9177 3.53091 29 3.3322 29 3.125V1.5625C29 1.3553 28.9177 1.15659 28.7712 1.01007C28.6247 0.86356 28.426 0.78125 28.2188 0.78125ZM28.2188 8.59375H12.5938C12.3865 8.59375 12.1878 8.67606 12.0413 8.82257C11.8948 8.96909 11.8125 9.1678 11.8125 9.375V10.9375C11.8125 11.1447 11.8948 11.3434 12.0413 11.4899C12.1878 11.6364 12.3865 11.7188 12.5938 11.7188H28.2188C28.426 11.7188 28.6247 11.6364 28.7712 11.4899C28.9177 11.3434 29 11.1447 29 10.9375V9.375C29 9.1678 28.9177 8.96909 28.7712 8.82257C28.6247 8.67606 28.426 8.59375 28.2188 8.59375Z" fill="black"/>
</g>
<defs>
<filter id="filter0_d_144_324" x="0" y="0" width="33" height="28.3125" filterUnits="userSpaceOnUse" color-interpolation-filters="sRGB">
<feFlood flood-opacity="0" result="BackgroundImageFix"/>
<feColorMatrix in="SourceAlpha" type="matrix" values="0 0 0 0 0 0 0 0 0 0 0 0 0 0 0 0 0 0 127 0" result="hardAlpha"/>
<feOffset dy="4"/>
<feGaussianBlur stdDeviation="2"/>
<feComposite in2="hardAlpha" operator="out"/>
<feColorMatrix type="matrix" values="0 0 0 0 0 0 0 0 0 0 0 0 0 0 0 0 0 0 0.25 0"/>
<feBlend mode="normal" in2="BackgroundImageFix" result="effect1_dropShadow_144_324"/>
<feBlend mode="normal" in="SourceGraphic" in2="effect1_dropShadow_144_324" result="shape"/>
</filter>
</defs>
</svg>
